<?xml version="1.0" standalone="no"?>
<!DOCTYPE svg PUBLIC "-//W3C//DTD SVG 20010904//EN"
 "http://www.w3.org/TR/2001/REC-SVG-20010904/DTD/svg10.dtd">
<svg version="1.0" xmlns="http://www.w3.org/2000/svg"
 width="300.000000pt" height="300.000000pt" viewBox="0 0 300.000000 300.000000"
 preserveAspectRatio="xMidYMid meet">
<metadata>
Created by potrace 1.10, written by Peter Selinger 2001-2011
</metadata>
<g transform="translate(0.000000,300.000000) scale(0.100000,-0.100000)"
fill="#000000" stroke="none">
<path d="M1381 2309 c-416 -55 -730 -428 -708 -842 2 -51 10 -115 16 -144 l13
-52 51 54 52 53 1 124 c1 104 5 135 27 203 69 210 231 375 437 446 87 30 276
38 370 16 92 -22 184 -66 264 -126 l69 -53 69 18 68 18 -52 54 c-171 174 -431
263 -677 231z m301 -41 c55 -12 85 -24 81 -31 -3 -6 -1 -7 5 -3 19 11 181 -84
240 -140 30 -30 53 -56 50 -59 -3 -3 -19 -9 -35 -14 -23 -7 -38 -4 -66 14 -20
12 -34 25 -30 29 4 4 0 4 -10 0 -9 -3 -17 -1 -17 4 0 6 -9 14 -20 17 -11 4
-17 11 -14 17 4 7 2 8 -4 4 -7 -4 -21 2 -33 13 -12 11 -25 18 -30 16 -4 -3
-14 1 -22 9 -8 8 -17 13 -20 10 -3 -3 -16 1 -29 9 -43 28 -193 50 -282 43
-102 -9 -115 -11 -149 -25 -16 -6 -33 -11 -38 -11 -15 0 -138 -61 -144 -71 -3
-4 -13 -5 -23 -2 -9 3 -14 2 -10 -2 11 -11 -29 -38 -44 -29 -7 5 -8 3 -3 -6 6
-10 4 -12 -9 -7 -11 4 -15 3 -11 -4 8 -13 -23 -49 -42 -49 -8 0 -11 -5 -8 -10
4 -6 -11 -30 -32 -54 -42 -47 -102 -160 -129 -241 -11 -33 -18 -93 -20 -175
-2 -69 -4 -128 -4 -131 0 -15 -37 -45 -55 -44 -15 0 -21 8 -24 35 -5 53 -5
178 2 241 6 65 47 190 59 183 4 -3 5 3 1 12 -5 13 -3 15 7 9 8 -5 11 -4 7 2
-13 21 100 200 122 195 6 -1 11 6 11 17 0 11 13 25 33 34 17 9 31 18 30 21 -2
4 -1 6 2 6 3 0 13 8 24 18 50 46 87 72 103 72 10 0 18 3 18 8 0 22 175 79 270
87 41 4 77 9 80 12 8 8 121 -7 212 -29z"/>
<path d="M2300 1985 c-47 -13 -130 -35 -185 -50 -55 -15 -101 -28 -103 -30 -2
-2 15 -20 38 -42 l41 -38 -206 -206 -206 -205 -122 123 -121 123 -198 -197
-197 -197 -52 58 -52 57 -169 -168 -168 -168 60 -60 61 -61 101 103 c56 57
105 103 109 103 4 0 31 -24 58 -53 l51 -54 197 199 198 198 123 -125 123 -126
266 267 266 267 39 -42 c21 -22 40 -41 42 -41 2 0 6 10 8 23 8 35 88 335 94
352 7 18 9 18 -96 -10z m27 -108 c-10 -40 -23 -95 -29 -124 -11 -56 -6 -54
-80 -37 -17 3 -28 1 -28 -5 0 -6 -4 -10 -9 -8 -5 1 -36 -24 -69 -55 -33 -32
-58 -58 -54 -58 4 0 -5 -8 -18 -17 -14 -10 -29 -16 -35 -15 -5 2 -7 0 -2 -4
10 -11 -54 -75 -67 -67 -6 3 -8 3 -4 -1 9 -11 -61 -86 -80 -86 -9 0 -12 -3 -9
-7 10 -10 -24 -43 -37 -36 -6 3 -8 2 -3 -2 10 -12 -53 -76 -67 -68 -6 3 -8 3
-4 -1 3 -4 -5 -21 -19 -37 -21 -23 -29 -26 -45 -18 -11 6 -17 17 -14 24 3 8 0
12 -7 9 -7 -2 -24 7 -36 20 -13 14 -28 23 -33 20 -5 -3 -7 -2 -6 3 5 15 -46
74 -59 69 -7 -3 -12 0 -10 6 3 16 -64 60 -81 53 -26 -10 -71 -50 -71 -64 -1
-8 -4 -12 -7 -8 -7 7 -200 -185 -196 -195 1 -5 -2 -8 -8 -8 -5 0 -30 -20 -55
-45 -35 -36 -47 -42 -51 -30 -3 8 -10 15 -15 15 -4 0 -20 12 -34 26 -45 45
-80 31 -182 -73 -47 -48 -83 -83 -80 -77 4 7 0 15 -9 18 -10 4 -13 2 -8 -7 4
-6 -3 -3 -15 8 -50 44 -49 50 41 137 46 45 93 95 106 112 12 16 22 26 22 22 0
-4 12 6 26 23 32 39 53 39 89 1 15 -16 32 -27 37 -24 4 3 8 0 8 -5 0 -17 32
-13 68 9 20 12 30 25 26 32 -4 6 -3 8 3 5 10 -7 49 33 45 46 -1 5 1 6 6 3 10
-6 58 44 54 56 -1 5 4 7 11 5 6 -1 11 4 9 11 -1 8 1 11 6 8 9 -6 48 35 44 46
-1 5 4 7 11 5 6 -1 11 4 9 11 -1 8 1 11 6 8 10 -6 48 35 44 47 -1 5 1 6 6 3 4
-3 21 9 37 25 l28 30 86 -83 c47 -46 89 -89 94 -96 4 -6 22 -19 38 -28 29 -14
32 -14 52 3 14 12 18 13 12 3 -11 -20 -18 -26 162 151 230 228 243 242 231
262 -5 10 -7 21 -4 26 3 5 -1 12 -10 15 -36 14 19 43 121 65 33 7 69 16 80 20
11 5 27 6 36 4 14 -4 13 -12 -4 -76z"/>
<path d="M1998 1422 l-208 -208 0 -238 0 -238 68 38 c125 69 228 161 300 267
83 120 141 300 142 437 0 62 -1 66 -42 107 -23 24 -45 43 -48 43 -3 0 -98 -94
-212 -208z m251 132 c23 -30 28 -104 10 -184 -5 -25 -11 -54 -13 -65 -7 -39
-61 -167 -79 -186 -10 -11 -16 -23 -13 -28 3 -5 -1 -11 -9 -15 -8 -3 -15 -11
-15 -19 0 -17 -148 -169 -182 -186 -16 -8 -28 -18 -28 -22 0 -8 -75 -49 -90
-49 -16 0 -13 375 3 402 22 38 362 376 379 377 9 0 26 -11 37 -25z"/>
<path d="M1333 1248 l-103 -103 0 -211 0 -211 63 -14 c81 -18 303 -18 385 0
l62 14 0 221 -1 221 -28 -33 -29 -33 -123 126 -124 126 -102 -103z m162 -3
c29 -30 58 -55 64 -55 6 0 11 -4 11 -9 0 -30 107 -110 129 -97 4 3 7 -5 8 -17
2 -20 2 -277 0 -304 -1 -23 -72 -39 -192 -41 -111 -3 -229 9 -244 24 -3 3 -7
91 -8 195 l-2 190 49 51 c27 28 46 56 43 61 -3 6 -1 7 5 3 6 -4 26 7 43 24 18
16 34 30 36 30 2 0 28 -25 58 -55z"/>
<path d="M1102 1021 l-63 -66 -53 57 -54 56 -41 -42 -41 -42 63 -60 c73 -71
109 -97 199 -147 l67 -37 3 175 c2 112 -1 175 -7 174 -5 -1 -38 -31 -73 -68z
m-129 -42 c20 -22 41 -38 47 -34 5 3 10 1 10 -5 0 -15 47 11 88 49 l32 30 0
-110 c0 -60 -3 -109 -6 -109 -27 0 -142 79 -201 137 -39 38 -42 45 -31 63 7
11 16 20 19 20 4 0 23 -18 42 -41z"/>
</g>
</svg>
